<svg width="35" height="35" viewBox="0 0 35 35" fill="none" xmlns="http://www.w3.org/2000/svg">
<path d="M24.1027 11.5129C24.1027 11.3453 23.9656 11.2082 23.7981 11.2082L21.2844 11.2196L17.4986 15.7328L13.7167 11.2234L11.1992 11.212C11.0316 11.212 10.8945 11.3453 10.8945 11.5167C10.8945 11.5891 10.9212 11.6576 10.9669 11.7147L15.9219 17.6181L10.9669 23.5176C10.9209 23.5734 10.8953 23.6433 10.8945 23.7156C10.8945 23.8832 11.0316 24.0203 11.1992 24.0203L13.7167 24.0089L17.4986 19.4957L21.2806 24.0051L23.7942 24.0165C23.9618 24.0165 24.0989 23.8832 24.0989 23.7118C24.0989 23.6395 24.0723 23.5709 24.0266 23.5138L19.0792 17.6143L24.0342 11.7109C24.0799 11.6576 24.1027 11.5853 24.1027 11.5129Z" fill="#333333"/>
<path d="M17.5 0.475586C8.07754 0.475586 0.4375 8.11563 0.4375 17.5381C0.4375 26.9605 8.07754 34.6006 17.5 34.6006C26.9225 34.6006 34.5625 26.9605 34.5625 17.5381C34.5625 8.11563 26.9225 0.475586 17.5 0.475586ZM17.5 31.7061C9.67715 31.7061 3.33203 25.3609 3.33203 17.5381C3.33203 9.71523 9.67715 3.37012 17.5 3.37012C25.3229 3.37012 31.668 9.71523 31.668 17.5381C31.668 25.3609 25.3229 31.7061 17.5 31.7061Z" fill="#333333"/>
</svg>
